<svg width="165" height="54" viewBox="0 0 165 54" fill="none" xmlns="http://www.w3.org/2000/svg">
    <path d="M49.3067 39H44.8933V23.3733H53.6933V26.7733L49.3067 26.5067V30.1333H52.9067V33.44L49.3067 33.1733V39ZM56.8161 39V23.3733H61.3628V39H56.8161ZM65.1824 39V23.3733H69.5957V35.4267H73.5691V39H65.1824ZM80.1784 39H76.1651L77.4051 23.3733H83.6584L84.8318 28.6133L85.3651 31.2667L85.8718 28.6267L86.9118 23.3733H92.4851L93.6318 39H89.4851L88.8051 29.8133L88.6451 26.4267L86.6051 37.44H83.1251L80.6718 26.4267L80.5918 29.8133L80.1784 39ZM101.32 32.96C101.32 34.4356 101.431 35.4622 101.653 36.04C101.884 36.6178 102.284 36.9067 102.853 36.9067C103.271 36.9067 103.586 36.8044 103.8 36.6C104.013 36.3867 104.173 35.9556 104.28 35.3067C104.395 34.6489 104.453 33.6667 104.453 32.36V29.1467C104.453 27.8756 104.328 26.9289 104.08 26.3067C103.831 25.6844 103.422 25.3733 102.853 25.3733C102.284 25.3733 101.884 25.68 101.653 26.2933C101.431 26.8978 101.32 28.0044 101.32 29.6133V32.96ZM102.573 39.28C101.835 39.28 101.168 39.2133 100.573 39.08C99.9863 38.9467 99.4796 38.76 99.0529 38.52C98.6263 38.28 98.2529 37.9733 97.9329 37.6C97.6218 37.2267 97.3685 36.8267 97.1729 36.4C96.9863 35.9733 96.8351 35.4756 96.7196 34.9067C96.604 34.3289 96.524 33.7556 96.4796 33.1867C96.4351 32.6089 96.4129 31.96 96.4129 31.24C96.4129 30.1733 96.4662 29.2444 96.5729 28.4533C96.6885 27.6622 96.8974 26.92 97.1996 26.2267C97.5018 25.5244 97.9018 24.9556 98.3996 24.52C98.9062 24.0844 99.5551 23.7422 100.346 23.4933C101.146 23.2444 102.088 23.12 103.173 23.12C103.92 23.12 104.591 23.1911 105.186 23.3333C105.782 23.4667 106.293 23.6533 106.72 23.8933C107.146 24.1333 107.515 24.4444 107.826 24.8267C108.146 25.2089 108.4 25.6178 108.586 26.0533C108.782 26.48 108.937 26.9822 109.053 27.56C109.168 28.1378 109.248 28.7111 109.293 29.28C109.337 29.8489 109.36 30.4933 109.36 31.2133C109.36 32.28 109.302 33.2089 109.186 34C109.071 34.7911 108.862 35.5333 108.56 36.2267C108.257 36.9111 107.853 37.4711 107.346 37.9067C106.84 38.3333 106.186 38.6711 105.386 38.92C104.595 39.16 103.657 39.28 102.573 39.28ZM115.225 39V26.9067H112.105V23.3733H122.852V26.9067H119.732V39H115.225ZM135.487 39H126.034V23.3733H135.287L135.021 26.52L130.447 26.3867V29.4H134.047V32.52L130.447 32.2533V35.8L135.487 35.6667V39ZM148.565 37.8933L148.445 38.04C148.356 38.1289 148.205 38.2444 147.991 38.3867C147.787 38.52 147.538 38.6578 147.245 38.8C146.96 38.9333 146.578 39.0444 146.098 39.1333C145.618 39.2311 145.102 39.28 144.551 39.28C143.387 39.28 142.391 39.0889 141.565 38.7067C140.738 38.3156 140.089 37.7511 139.618 37.0133C139.156 36.2667 138.822 35.4267 138.618 34.4933C138.414 33.5511 138.311 32.4622 138.311 31.2267C138.311 29.9111 138.414 28.7778 138.618 27.8267C138.822 26.8667 139.16 26.0267 139.631 25.3067C140.111 24.5778 140.769 24.0311 141.605 23.6667C142.44 23.3022 143.458 23.12 144.658 23.12C145.209 23.12 145.725 23.1689 146.205 23.2667C146.694 23.3644 147.076 23.4756 147.351 23.6C147.636 23.7244 147.889 23.8667 148.111 24.0267C148.342 24.1867 148.485 24.2978 148.538 24.36C148.6 24.4222 148.645 24.4711 148.671 24.5067L148.471 27.5733H146.445L145.751 25.9867C145.591 25.9422 145.458 25.92 145.351 25.92C144.756 25.92 144.298 26.0578 143.978 26.3333C143.658 26.6 143.414 27.1289 143.245 27.92C143.076 28.7022 142.991 29.8311 142.991 31.3067C142.991 32.1867 143.045 32.9556 143.151 33.6133C143.267 34.2711 143.405 34.7778 143.565 35.1333C143.725 35.48 143.916 35.76 144.138 35.9733C144.36 36.1867 144.56 36.3244 144.738 36.3867C144.916 36.44 145.107 36.4667 145.311 36.4667C145.765 36.4667 146.24 36.4133 146.738 36.3067C147.236 36.1911 147.645 36.0178 147.965 35.7867L148.565 37.8933ZM159.419 39L158.819 36.5067H155.033L154.526 39H150.606L154.673 24.4533L154.353 23.3733H159.859L164.313 39H159.419ZM156.753 27.96L155.579 33.7867H158.166L156.753 27.96Z" fill="#1E1E1E"/>
    <path d="M34.3687 20.0262C33.7025 19.6688 32.305 19.295 30.4037 20.6275L28.015 22.3175C27.8363 17.2638 25.6425 15.2812 20.3125 15.2812H10.5625C5.005 15.2812 2.84375 17.4425 2.84375 23V36C2.84375 39.7375 4.875 43.7188 10.5625 43.7188H20.3125C25.6425 43.7188 27.8363 41.7362 28.015 36.6825L30.4037 38.3725C31.4112 39.0875 32.2887 39.315 32.9875 39.315C33.5887 39.315 34.06 39.1362 34.3687 38.9737C35.035 38.6325 36.1562 37.7062 36.1562 35.3825V23.6175C36.1562 21.2938 35.035 20.3675 34.3687 20.0262ZM17.875 28.4925C16.2013 28.4925 14.82 27.1275 14.82 25.4375C14.82 23.7475 16.2013 22.3825 17.875 22.3825C19.5487 22.3825 20.93 23.7475 20.93 25.4375C20.93 27.1275 19.5487 28.4925 17.875 28.4925Z" fill="#1E1E1E"/>
</svg>
